<svg width="13" height="10" viewBox="0 0 13 10" fill="none" xmlns="http://www.w3.org/2000/svg">
<path d="M7.23647 0.266472C7.4106 0.0958501 7.64675 0 7.89298 0C8.1392 0 8.37535 0.0958501 8.54949 0.266472L12.7281 4.36204C12.9022 4.53271 13 4.76416 13 5.00549C13 5.24683 12.9022 5.47828 12.7281 5.64895L8.54949 9.74452C8.37435 9.9103 8.13979 10.002 7.89632 9.99996C7.65285 9.99789 7.41995 9.90217 7.24778 9.73343C7.07561 9.56469 6.97795 9.33641 6.97584 9.09778C6.97372 8.85915 7.06732 8.62925 7.23647 8.4576L9.75015 5.91562H0.928586C0.682309 5.91562 0.44612 5.81973 0.271976 5.64905C0.0978329 5.47837 0 5.24687 0 5.00549C0 4.76411 0.0978329 4.53262 0.271976 4.36194C0.44612 4.19126 0.682309 4.09537 0.928586 4.09537H9.75015L7.23647 1.55339C7.06238 1.38272 6.96459 1.15126 6.96459 0.909931C6.96459 0.668598 7.06238 0.437146 7.23647 0.266472Z" fill="white"/>
</svg>
