<svg width="515" height="435" viewBox="0 0 515 435" fill="none" xmlns="http://www.w3.org/2000/svg">
<path d="M492 242L482.5 230.125H489.625L480.125 218.25H484.875L473 204L461.125 218.25H465.875L456.375 230.125H463.5L454 242H470.625V251.5H475.375V242H492Z" fill="#422FEE"/>
<path d="M492 176L482.5 164.125H489.625L480.125 152.25H484.875L473 138L461.125 152.25H465.875L456.375 164.125H463.5L454 176H470.625V185.5H475.375V176H492Z" fill="#422FEE"/>
<path d="M334 38L324.5 26.125H331.625L322.125 14.25H326.875L315 0L303.125 14.25H307.875L298.375 26.125H305.5L296 38H312.625V47.5H317.375V38H334Z" fill="#422FEE"/>
<path d="M183 38L173.5 26.125H180.625L171.125 14.25H175.875L164 0L152.125 14.25H156.875L147.375 26.125H154.5L145 38H161.625V47.5H166.375V38H183Z" fill="#422FEE"/>
<path d="M94 56L84.5 44.125H91.625L82.125 32.25H86.875L75 18L63.125 32.25H67.875L58.375 44.125H65.5L56 56H72.625V65.5H77.375V56H94Z" fill="#422FEE"/>
<path d="M145 104L135.5 92.125H142.625L133.125 80.25H137.875L126 66L114.125 80.25H118.875L109.375 92.125H116.5L107 104H123.625V113.5H128.375V104H145Z" fill="#422FEE"/>
<path d="M126 277L116.5 265.125H123.625L114.125 253.25H118.875L107 239L95.125 253.25H99.875L90.375 265.125H97.5L88 277H104.625V286.5H109.375V277H126Z" fill="#422FEE"/>
<path d="M427 152L417.5 140.125H424.625L415.125 128.25H419.875L408 114L396.125 128.25H400.875L391.375 140.125H398.5L389 152H405.625V161.5H410.375V152H427Z" fill="#422FEE"/>
<path d="M38 242L28.5 230.125H35.625L26.125 218.25H30.875L19 204L7.125 218.25H11.875L2.375 230.125H9.5L0 242H16.625V251.5H21.375V242H38Z" fill="#422FEE"/>
<path d="M278.54 42.004C254.05 41.746 168.67 54.14 168.938 69.082C169.398 94.632 273.371 120.635 263.664 122.1C165.28 136.948 110.695 137.105 78.0673 166.878C39.1533 202.385 293.05 247.798 262.489 256.565C205.285 272.977 154.669 292.821 153.487 344.979C153.317 352.499 154.287 359.364 156.192 365.679H211.137C195.714 345.044 187.087 325.015 196.537 319.767C206.95 334.874 219.029 350.893 232.711 365.679H296.997C277.523 355.767 245.265 336.271 246.403 316.255C248.003 288.085 312.773 268.497 316.286 268.497C316.286 268.497 267.5 294.881 266.419 318.363C265.652 335.043 288.736 355.348 302.109 365.679H354.085C337.631 353.354 327.607 340.759 333.659 333.794C349.199 344.86 366.774 356.232 385.485 365.679H492.202C435.462 349.691 389.519 333.009 376.977 312.552C366.781 295.922 449.339 284.716 437.385 233.65C431.595 208.912 379.145 192.556 234.163 171.024C208.795 167.256 368.521 151.568 363.981 113.914C361.331 91.934 260.693 87.0639 249.401 76.9809C244.655 72.7439 255.264 47.4209 278.538 42.0069L278.54 42.004ZM134.152 179.734C167.528 179.589 218.537 202.158 256.952 216.481L255.162 228.151C226.758 217.545 151.257 190.687 127.72 180.074C129.78 179.854 131.927 179.742 134.152 179.734ZM404.386 233.537C404.49 233.53 404.485 233.615 404.371 233.79C408.271 245.973 382.884 277.84 342.564 276.632C356.717 269.482 402.296 233.628 404.386 233.536V233.537Z" fill="#422FEE"/>
<path d="M160.64 419V374.2H184.384C187.328 374.2 189.952 374.84 192.256 376.12C194.603 377.4 196.459 379.149 197.824 381.368C199.189 383.587 199.872 386.083 199.872 388.856C199.872 391.843 199.147 394.509 197.696 396.856C196.288 399.16 194.368 400.995 191.936 402.36C189.504 403.725 186.752 404.408 183.68 404.408H171.52V419H160.64ZM171.328 394.872H181.888C183.125 394.872 184.235 394.616 185.216 394.104C186.24 393.592 187.051 392.909 187.648 392.056C188.245 391.16 188.544 390.157 188.544 389.048C188.544 387.939 188.245 387 187.648 386.232C187.051 385.464 186.24 384.867 185.216 384.44C184.235 384.013 183.125 383.8 181.888 383.8H171.328V394.872ZM215.285 419V385.016H225.013L225.461 397.048L222.837 396.152C223.434 393.933 224.437 391.949 225.845 390.2C227.295 388.408 228.981 386.979 230.901 385.912C232.863 384.845 234.911 384.312 237.045 384.312C238.282 384.312 239.455 384.44 240.565 384.696C241.717 384.952 242.698 385.272 243.509 385.656L240.693 396.792C239.967 396.28 238.986 395.896 237.749 395.64C236.554 395.341 235.359 395.192 234.165 395.192C232.799 395.192 231.583 395.405 230.517 395.832C229.493 396.259 228.597 396.856 227.829 397.624C227.103 398.349 226.549 399.181 226.165 400.12C225.781 401.016 225.589 401.997 225.589 403.064V419H215.285ZM273.504 419.64C269.408 419.64 265.76 418.893 262.56 417.4C259.36 415.864 256.842 413.773 255.008 411.128C253.216 408.44 252.32 405.389 252.32 401.976C252.32 398.52 253.216 395.469 255.008 392.824C256.842 390.179 259.36 388.109 262.56 386.616C265.76 385.08 269.408 384.312 273.504 384.312C277.685 384.312 281.354 385.08 284.512 386.616C287.669 388.109 290.144 390.179 291.936 392.824C293.77 395.469 294.688 398.52 294.688 401.976C294.688 405.389 293.77 408.44 291.936 411.128C290.144 413.773 287.669 415.864 284.512 417.4C281.354 418.893 277.685 419.64 273.504 419.64ZM273.568 410.808C275.573 410.808 277.386 410.445 279.007 409.72C280.672 408.952 281.973 407.907 282.912 406.584C283.893 405.261 284.362 403.725 284.319 401.976C284.362 400.227 283.893 398.691 282.912 397.368C281.973 396.003 280.672 394.957 279.007 394.232C277.386 393.464 275.573 393.08 273.568 393.08C271.52 393.08 269.664 393.464 268 394.232C266.336 394.957 265.034 396.003 264.096 397.368C263.157 398.691 262.688 400.227 262.688 401.976C262.688 403.725 263.157 405.261 264.096 406.584C265.034 407.907 266.336 408.952 268 409.72C269.664 410.445 271.52 410.808 273.568 410.808ZM306.01 432.44L302.17 424.056C304.773 424.056 306.842 423.608 308.378 422.712C309.957 421.859 311.066 420.536 311.706 418.744C312.389 416.909 312.73 414.563 312.73 411.704V385.016H322.97V414.136C322.97 418.275 322.287 421.688 320.922 424.376C319.557 427.064 317.615 429.069 315.098 430.392C312.581 431.757 309.551 432.44 306.01 432.44ZM317.914 378.168C315.951 378.168 314.437 377.699 313.37 376.76C312.303 375.821 311.77 374.52 311.77 372.856C311.77 371.277 312.303 369.997 313.37 369.016C314.479 368.035 315.994 367.544 317.914 367.544C319.834 367.544 321.327 368.013 322.394 368.952C323.461 369.848 323.994 371.149 323.994 372.856C323.994 374.392 323.439 375.672 322.33 376.696C321.263 377.677 319.791 378.168 317.914 378.168ZM359.246 419.64C354.937 419.64 351.161 418.893 347.918 417.4C344.718 415.864 342.222 413.773 340.43 411.128C338.681 408.483 337.806 405.496 337.806 402.168C337.806 399.48 338.318 397.048 339.342 394.872C340.409 392.653 341.859 390.776 343.694 389.24C345.529 387.661 347.662 386.445 350.094 385.592C352.569 384.739 355.193 384.312 357.966 384.312C360.697 384.312 363.214 384.739 365.518 385.592C367.865 386.445 369.891 387.64 371.598 389.176C373.347 390.669 374.67 392.461 375.566 394.552C376.505 396.643 376.931 398.947 376.846 401.464L376.782 404.472H344.718L343.246 398.328H368.462L367.374 399.672V398.392C367.246 397.24 366.755 396.237 365.902 395.384C365.049 394.531 363.939 393.869 362.574 393.4C361.251 392.888 359.758 392.632 358.094 392.632C356.046 392.632 354.211 392.952 352.59 393.592C350.969 394.232 349.689 395.213 348.75 396.536C347.854 397.816 347.406 399.437 347.406 401.4C347.406 403.235 347.939 404.877 349.006 406.328C350.073 407.736 351.609 408.867 353.614 409.72C355.619 410.531 357.966 410.936 360.654 410.936C363.129 410.936 365.177 410.659 366.798 410.104C368.419 409.507 369.785 408.824 370.894 408.056L375.438 414.712C373.987 415.779 372.387 416.675 370.638 417.4C368.889 418.125 367.033 418.68 365.07 419.064C363.15 419.448 361.209 419.64 359.246 419.64ZM408.417 419.64C404.534 419.64 401.057 418.872 397.985 417.336C394.956 415.8 392.566 413.709 390.817 411.064C389.11 408.376 388.257 405.347 388.257 401.976C388.257 398.563 389.11 395.533 390.817 392.888C392.566 390.243 394.934 388.152 397.921 386.616C400.908 385.08 404.3 384.312 408.097 384.312C411.638 384.312 414.902 384.824 417.889 385.848C420.876 386.872 423.329 388.344 425.249 390.264L419.681 397.432C418.87 396.664 417.868 395.96 416.673 395.32C415.478 394.68 414.241 394.168 412.961 393.784C411.681 393.4 410.316 393.208 408.865 393.208C406.817 393.208 405.004 393.592 403.425 394.36C401.889 395.085 400.694 396.109 399.841 397.432C399.03 398.712 398.625 400.227 398.625 401.976C398.625 403.64 399.052 405.155 399.905 406.52C400.758 407.843 401.953 408.867 403.489 409.592C405.025 410.317 406.817 410.68 408.865 410.68C410.529 410.68 412.022 410.531 413.345 410.232C414.668 409.891 415.862 409.464 416.929 408.952C417.996 408.397 418.934 407.821 419.745 407.224L425.249 414.328C423.201 415.864 420.726 417.144 417.825 418.168C414.966 419.149 411.83 419.64 408.417 419.64ZM443.117 419V375.352H453.357V419H443.117ZM434.925 393.976V385.016H462.829V393.976H434.925ZM492.851 419.64C488.883 419.64 485.342 419.107 482.227 418.04C479.112 416.973 476.595 415.416 474.675 413.368L480.947 407.864C482.398 409.229 484.19 410.296 486.323 411.064C488.499 411.789 490.824 412.152 493.299 412.152C494.067 412.152 494.814 412.109 495.539 412.024C496.264 411.939 496.904 411.768 497.459 411.512C498.056 411.256 498.504 410.957 498.803 410.616C499.144 410.232 499.315 409.805 499.315 409.336C499.315 408.483 498.739 407.821 497.587 407.352C496.862 407.096 495.88 406.861 494.643 406.648C493.406 406.392 492.083 406.136 490.675 405.88C488.158 405.411 485.96 404.899 484.083 404.344C482.206 403.789 480.648 403.043 479.411 402.104C478.259 401.208 477.363 400.184 476.723 399.032C476.126 397.88 475.827 396.493 475.827 394.872C475.827 393.208 476.254 391.736 477.107 390.456C478.003 389.176 479.198 388.067 480.691 387.128C482.227 386.189 483.976 385.485 485.939 385.016C487.902 384.547 489.992 384.312 492.211 384.312C494.302 384.312 496.371 384.504 498.419 384.888C500.467 385.272 502.43 385.848 504.307 386.616C506.184 387.384 507.827 388.344 509.235 389.496L503.987 395.704C503.006 394.979 501.832 394.317 500.467 393.72C499.144 393.08 497.715 392.589 496.179 392.248C494.686 391.864 493.192 391.672 491.699 391.672C490.888 391.672 490.142 391.715 489.459 391.8C488.776 391.885 488.136 392.035 487.539 392.248C486.984 392.461 486.536 392.739 486.195 393.08C485.896 393.421 485.747 393.827 485.747 394.296C485.747 394.637 485.854 394.979 486.067 395.32C486.28 395.619 486.6 395.896 487.027 396.152C487.667 396.536 488.627 396.899 489.907 397.24C491.23 397.539 492.787 397.859 494.579 398.2C497.438 398.669 499.87 399.267 501.875 399.992C503.88 400.717 505.459 401.549 506.611 402.488C507.635 403.256 508.36 404.131 508.787 405.112C509.214 406.093 509.427 407.203 509.427 408.44C509.427 410.659 508.723 412.621 507.315 414.328C505.907 415.992 503.944 417.293 501.427 418.232C498.952 419.171 496.094 419.64 492.851 419.64Z" fill="#422FEE"/>
</svg>
