<svg width="31" height="30" viewBox="0 0 31 30" fill="none" xmlns="http://www.w3.org/2000/svg">
<path d="M24.8 3.25579V0H6.2V3.25579H0V7.89474C0 11.8816 2.92795 15.1547 6.7022 15.6821C7.24281 17.2971 8.20167 18.7332 9.47744 19.8388C10.7532 20.9444 12.2985 21.6784 13.95 21.9632V23.6842C13.95 24.5217 13.6234 25.325 13.042 25.9172C12.4607 26.5094 11.6722 26.8421 10.85 26.8421H9.3V30H21.7V26.8421H20.15C19.3278 26.8421 18.5393 26.5094 17.958 25.9172C17.3766 25.325 17.05 24.5217 17.05 23.6842V21.9632C18.7015 21.6784 20.2468 20.9444 21.5226 19.8388C22.7983 18.7332 23.7572 17.2971 24.2978 15.6821C28.0721 15.1547 31 11.8816 31 7.89474V3.25579H24.8ZM3.1 7.89474V6.41368H6.2V12.36C5.29401 12.0327 4.50966 11.4278 3.95462 10.6283C3.39957 9.82885 3.10104 8.87396 3.1 7.89474ZM27.9 7.89474C27.8988 8.87412 27.6003 9.82915 27.0453 10.6289C26.4903 11.4286 25.706 12.0338 24.8 12.3616V6.41368H27.9V7.89474Z" fill="#FFFEFE"/>
</svg>
