<svg width="1371" height="308" viewBox="0 0 1371 308" fill="none" xmlns="http://www.w3.org/2000/svg">
<path d="M10 115.83L26.1619 99.8155C42.4183 83.8013 75.2146 51.7729 107.349 73.0918C139.579 94.811 171.619 168.877 204.699 185.191C236.833 200.905 268.968 158.868 302.048 158.568C334.088 158.868 366.317 200.905 398.452 195.901C431.248 190.896 463.667 136.848 495.801 121.134C528.503 104.82 561.016 126.839 593.151 153.163C625.663 179.886 658.365 211.915 690.5 185.191C722.918 158.868 755.715 72.7915 787.849 83.8013C820.079 94.811 852.119 200.905 885.199 249.248C917.333 296.99 949.468 286.981 982.548 275.972C1014.59 264.962 1046.82 254.953 1078.95 254.653C1111.75 254.953 1144.17 264.962 1176.3 259.957C1209 254.953 1241.52 232.933 1273.65 206.61C1306.16 179.886 1338.87 147.858 1354.93 131.844L1371 115.83V308H1354.84C1338.58 308 1305.79 308 1273.65 308C1241.42 308 1209.38 308 1176.3 308C1144.17 308 1112.03 308 1078.95 308C1046.91 308 1014.68 308 982.548 308C949.752 308 917.333 308 885.199 308C852.497 308 819.984 308 787.849 308C755.337 308 722.635 308 690.5 308C658.082 308 625.285 308 593.151 308C560.921 308 528.881 308 495.801 308C463.667 308 431.532 308 398.452 308C366.412 308 334.183 308 302.048 308C269.252 308 236.833 308 204.699 308C171.997 308 139.484 308 107.349 308C74.8365 308 42.1347 308 26.0674 308H10V115.83Z" fill="#000"/>
<path d="M56.4555 29.5529L62.0309 27.9501L77.0428 80.1697L71.4674 81.7725L60.5725 43.8741C57.4896 44.1291 54.4423 43.8216 51.4045 42.9984C48.3668 42.1752 45.6565 40.9818 43.1905 39.4025L44.1472 51.2393L54.5782 56.9201L62.4665 84.36L55.1783 86.4552L48.8928 64.5907L38.4254 58.9204L40.2012 90.7608L32.33 93.0236C32.33 93.0236 27.2051 32.2411 27.1782 31.7359C27.0762 29.8715 27.4903 28.2928 28.5872 27.0306C29.6526 25.6591 30.8648 24.7977 32.2495 24.3996C33.6707 23.9911 35.0769 23.9419 36.468 24.2522C37.885 24.5155 39.0944 25.1541 40.122 26.1212L45.6923 30.9506C47.3148 32.6146 49.2283 33.9188 51.412 34.7902C53.5957 35.6616 55.9402 36.1318 58.3726 36.2215L56.4555 29.5529ZM21.038 28.7668L16.5959 29.0969C14.3617 29.1474 12.5924 30.1295 11.215 31.7879C9.87391 33.4359 9.3145 35.3327 9.55769 37.551L10.7754 52.903C10.9698 53.9912 11.4609 54.8758 12.2953 55.5827C13.1298 56.2897 14.0313 56.5434 14.9842 56.4273L23.488 55.6791L21.038 28.7668ZM32.1315 6.2855C28.123 7.43784 25.7862 11.6603 26.9385 15.6688C28.0908 19.6773 32.3133 22.0142 36.3218 20.8618C40.3303 19.7095 42.6776 15.5234 41.5148 11.4785C40.352 7.43356 36.1764 5.12268 32.1315 6.2855Z" fill="#000"/>
</svg>
