<svg width="27" height="27" viewBox="0 0 27 27" fill="none" xmlns="http://www.w3.org/2000/svg">
<path d="M0 0H27V27H0V0Z" fill="white"/>
<path d="M14 4C12.6868 4 11.3864 4.25866 10.1732 4.7612C8.95991 5.26375 7.85752 6.00035 6.92893 6.92893C5.05357 8.8043 4 11.3478 4 14C4 18.42 6.87 22.17 10.84 23.5C11.34 23.58 11.5 23.27 11.5 23V21.31C8.73 21.91 8.14 19.97 8.14 19.97C7.68 18.81 7.03 18.5 7.03 18.5C6.12 17.88 7.1 17.9 7.1 17.9C8.1 17.97 8.63 18.93 8.63 18.93C9.5 20.45 10.97 20 11.54 19.76C11.63 19.11 11.89 18.67 12.17 18.42C9.95 18.17 7.62 17.31 7.62 13.5C7.62 12.39 8 11.5 8.65 10.79C8.55 10.54 8.2 9.5 8.75 8.15C8.75 8.15 9.59 7.88 11.5 9.17C12.29 8.95 13.15 8.84 14 8.84C14.85 8.84 15.71 8.95 16.5 9.17C18.41 7.88 19.25 8.15 19.25 8.15C19.8 9.5 19.45 10.54 19.35 10.79C20 11.5 20.38 12.39 20.38 13.5C20.38 17.32 18.04 18.16 15.81 18.41C16.17 18.72 16.5 19.33 16.5 20.26V23C16.5 23.27 16.66 23.59 17.17 23.5C21.14 22.16 24 18.42 24 14C24 12.6868 23.7413 11.3864 23.2388 10.1732C22.7362 8.95991 21.9997 7.85752 21.0711 6.92893C20.1425 6.00035 19.0401 5.26375 17.8268 4.7612C16.6136 4.25866 15.3132 4 14 4Z" fill="black"/>
</svg>
