<svg width="27" height="27" viewBox="0 0 27 27" fill="none" xmlns="http://www.w3.org/2000/svg">
<path d="M0 0H27V27H0V0Z" fill="#D9D9D9"/>
<path d="M21 5C21.5304 5 22.0391 5.21071 22.4142 5.58579C22.7893 5.96086 23 6.46957 23 7V21C23 21.5304 22.7893 22.0391 22.4142 22.4142C22.0391 22.7893 21.5304 23 21 23H7C6.46957 23 5.96086 22.7893 5.58579 22.4142C5.21071 22.0391 5 21.5304 5 21V7C5 6.46957 5.21071 5.96086 5.58579 5.58579C5.96086 5.21071 6.46957 5 7 5H21ZM20.5 20.5V15.2C20.5 14.3354 20.1565 13.5062 19.5452 12.8948C18.9338 12.2835 18.1046 11.94 17.24 11.94C16.39 11.94 15.4 12.46 14.92 13.24V12.13H12.13V20.5H14.92V15.57C14.92 14.8 15.54 14.17 16.31 14.17C16.6813 14.17 17.0374 14.3175 17.2999 14.5801C17.5625 14.8426 17.71 15.1987 17.71 15.57V20.5H20.5ZM8.88 10.56C9.32556 10.56 9.75288 10.383 10.0679 10.0679C10.383 9.75288 10.56 9.32556 10.56 8.88C10.56 7.95 9.81 7.19 8.88 7.19C8.43178 7.19 8.00193 7.36805 7.68499 7.68499C7.36805 8.00193 7.19 8.43178 7.19 8.88C7.19 9.81 7.95 10.56 8.88 10.56ZM10.27 20.5V12.13H7.5V20.5H10.27Z" fill="black"/>
</svg>
