<svg width="108" height="109" viewBox="0 0 108 109" fill="none" xmlns="http://www.w3.org/2000/svg">
<path d="M27.2146 57.7553L19.5997 48.747L21.8077 46.1495C22.2297 45.6531 22.6932 45.3212 23.1982 45.154C23.7029 44.9814 24.2107 44.9806 24.7217 45.1514C25.2322 45.317 25.7072 45.656 26.1464 46.1686C26.575 46.6821 26.8593 47.2395 26.9995 47.8408C27.1367 48.4397 27.134 49.0364 26.9914 49.6311C26.8459 50.2234 26.5622 50.7677 26.1403 51.2641L24.0501 53.723L23.8024 53.4529L25.8926 50.9939C26.2704 50.5495 26.5252 50.0626 26.657 49.5333C26.7912 49.0011 26.7964 48.4686 26.6726 47.9358C26.5512 47.4001 26.2973 46.9034 25.9109 46.4457C25.5187 45.983 25.0949 45.6774 24.6394 45.5289C24.184 45.3804 23.7315 45.3835 23.2818 45.5382C22.8321 45.6929 22.4184 45.9925 22.0406 46.4369L20.0682 48.7574L27.4502 57.4782L27.2146 57.7553ZM26.6243 50.2736L31.9396 52.1967L31.6894 52.4911L26.374 50.568L26.6243 50.2736ZM33.5901 50.2551L25.9752 41.2467L29.9936 36.5193L30.2265 36.8068L26.4436 41.2571L29.9017 45.3301L33.4638 41.1395L33.6967 41.427L30.1346 45.6176L33.5927 49.6906L37.4787 45.119L37.7116 45.4065L33.5901 50.2551ZM39.0529 43.8285L38.8027 44.1229L33.8815 31.9456L34.2053 31.5646L44.5139 37.4041L44.2636 37.6984L34.3603 32.0841L34.3308 32.1188L39.0529 43.8285ZM37.1048 39.488L40.6081 35.3667L40.841 35.6541L37.3377 39.7755L37.1048 39.488ZM45.9954 23.3091L45.7451 23.6035C45.4483 23.3561 45.1003 23.1573 44.7012 23.0069C44.3045 22.8536 43.883 22.7763 43.4368 22.7748C42.9931 22.7705 42.5496 22.8682 42.1062 23.0681C41.6654 23.2651 41.2511 23.5915 40.8635 24.0475C40.3508 24.6507 40.0187 25.3777 39.8673 26.2284C39.7131 27.0766 39.777 27.981 40.0591 28.9417C40.3407 29.897 40.8767 30.8398 41.6669 31.77C42.4637 32.7158 43.2679 33.3547 44.0795 33.6866C44.8911 34.0185 45.6562 34.0922 46.3748 33.9076C47.0935 33.7231 47.7104 33.3278 48.2256 32.7217C48.6083 32.2714 48.8849 31.7882 49.0553 31.2718C49.2253 30.7502 49.3107 30.2287 49.3114 29.7073C49.3093 29.1834 49.2448 28.6862 49.1179 28.2154C48.9907 27.7394 48.8226 27.323 48.6136 26.9664L48.8638 26.6721C49.0848 27.0438 49.2696 27.4843 49.4184 27.9936C49.5643 28.5004 49.6431 29.0422 49.6549 29.619C49.6692 30.1929 49.5845 30.7721 49.4008 31.3567C49.2166 31.9359 48.9025 32.4868 48.4585 33.0091C47.8403 33.7364 47.1334 34.182 46.3378 34.346C45.5423 34.5099 44.7191 34.3992 43.8682 34.0141C43.0199 33.626 42.2076 32.9703 41.4314 32.0471C40.6502 31.1295 40.0968 30.1694 39.771 29.1666C39.4451 28.1638 39.3518 27.1946 39.4909 26.2589C39.6325 25.3203 40.0124 24.4874 40.6306 23.7601C41.0747 23.2377 41.5432 22.8679 42.0361 22.6505C42.5291 22.4332 43.0194 22.333 43.5072 22.3499C43.9921 22.3643 44.4487 22.4617 44.8772 22.6419C45.3052 22.8168 45.6779 23.0392 45.9954 23.3091ZM53.1616 27.2306L45.5468 18.2223L45.7823 17.9452L49.4733 22.3056L54.2719 16.6605L50.5809 12.3L50.8164 12.023L58.4313 21.0313L58.1958 21.3084L54.5048 16.9479L49.7062 22.5931L53.3972 26.9536L53.1616 27.2306ZM41.6912 70.0609L34.0764 61.0526L38.1243 56.2905L38.3572 56.578L34.5448 61.063L38.0029 65.1359L41.462 61.0666L41.6949 61.354L38.2358 65.4234L41.9268 69.7838L41.6912 70.0609ZM49.7524 51.5942C50.5306 52.5093 51.0827 53.4682 51.4085 54.471C51.7343 55.4738 51.8279 56.4457 51.6892 57.3867C51.5501 58.3224 51.1714 59.1539 50.5532 59.8812C49.9227 60.6229 49.2082 61.0745 48.4097 61.236C47.6137 61.3945 46.7928 61.2784 45.9469 60.8874C45.1009 60.4965 44.2891 59.8461 43.5113 58.9364C42.738 58.0156 42.1884 57.0538 41.8626 56.051C41.5392 55.0453 41.4483 54.0732 41.5899 53.1346C41.7286 52.1936 42.107 51.3594 42.7253 50.6321C43.341 49.9077 44.0467 49.4636 44.8423 49.2996C45.6403 49.1328 46.4647 49.242 47.3155 49.6272C48.1635 50.0099 48.9758 50.6656 49.7524 51.5942ZM49.5169 51.8713C48.7795 50.9959 48.0181 50.371 47.2326 49.9967C46.4472 49.6223 45.6893 49.5051 44.9589 49.6449C44.2311 49.7818 43.5838 50.1836 43.0171 50.8503C42.4405 51.5286 42.0859 52.3084 41.9531 53.1898C41.8203 54.0712 41.9052 54.9861 42.2078 55.9343C42.51 56.8772 43.023 57.7856 43.7468 58.6593C44.4838 59.5294 45.2437 60.153 46.0267 60.5303C46.8097 60.9075 47.5679 61.0274 48.3011 60.8901C49.0339 60.7474 49.6873 60.3383 50.2614 59.663C50.8452 58.9761 51.2021 58.1907 51.332 57.3068C51.4644 56.4201 51.3782 55.5067 51.0736 54.5667C50.7686 53.6213 50.2497 52.7228 49.5169 51.8713ZM55.4946 53.8223L47.8797 44.814L50.0876 42.2165C50.5096 41.7201 50.9731 41.3883 51.4782 41.221C51.9828 41.0485 52.4906 41.0476 53.0016 41.2185C53.5122 41.384 53.9871 41.7231 54.4263 42.2356C54.8549 42.7491 55.1393 43.3065 55.2794 43.9078C55.4166 44.5067 55.4139 45.1035 55.2713 45.6982C55.1259 46.2904 54.8421 46.8347 54.4202 47.3311L52.33 49.7901L52.0824 49.5199L54.1726 47.061C54.5504 46.6165 54.8051 46.1296 54.9369 45.6003C55.0711 45.0681 55.0763 44.5356 54.9525 44.0028C54.8312 43.4672 54.5773 42.9705 54.1908 42.5127C53.7986 42.0501 53.3748 41.7445 52.9194 41.596C52.4639 41.4475 52.0114 41.4506 51.5617 41.6053C51.1121 41.7599 50.6983 42.0595 50.3205 42.504L48.3481 44.8244L55.7301 53.5453L55.4946 53.8223ZM54.9042 46.3406L60.2196 48.2637L59.9693 48.5581L54.654 46.635L54.9042 46.3406ZM48.2412 74.2863L48.0083 73.9989L53.1013 68.0074L53.3342 68.2948L50.9055 71.152L58.2875 79.8729L58.052 80.15L50.67 71.4291L48.2412 74.2863ZM62.523 74.8901L54.9082 65.8818L55.1437 65.6047L58.8347 69.9651L63.6333 64.3199L59.9423 59.9595L60.1778 59.6824L67.7927 68.6908L67.5572 68.9679L63.8662 64.6074L59.0676 70.2526L62.7586 74.613L62.523 74.8901ZM70.1432 65.9256L62.5283 56.9172L66.5468 52.1898L66.7797 52.4773L62.9967 56.9276L66.4548 61.0006L70.017 56.81L70.2499 57.0975L66.6877 61.288L70.1458 65.361L74.0318 60.7895L74.2647 61.0769L70.1432 65.9256ZM68.9702 83.1668C68.4107 82.5968 67.7865 82.3222 67.0976 82.3431C66.4086 82.364 65.771 82.7194 65.1847 83.4092C64.802 83.8594 64.5343 84.3527 64.3816 84.8891C64.2285 85.4201 64.1943 85.9429 64.279 86.4573C64.3608 86.9693 64.5668 87.4229 64.8971 87.818C65.0904 88.0469 65.3006 88.2206 65.5279 88.3393C65.7548 88.4525 66.0015 88.5132 66.2682 88.5211C66.5344 88.5237 66.8218 88.4722 67.1304 88.3666C67.4413 88.258 67.7735 88.0954 68.1267 87.8787L69.248 87.1912C69.6754 86.9282 70.0719 86.7308 70.4375 86.599C70.8055 86.4644 71.1454 86.3979 71.4572 86.3995C71.7691 86.401 72.0596 86.4715 72.3289 86.611C72.6006 86.7475 72.8539 86.9554 73.0889 87.2346C73.4988 87.7173 73.7615 88.2563 73.877 88.8516C73.9895 89.4444 73.9516 90.0534 73.7631 90.6787C73.5771 91.3011 73.2363 91.9038 72.7407 92.4868C72.2844 93.0236 71.803 93.3998 71.2965 93.6156C70.7871 93.8289 70.2891 93.8853 69.8027 93.785C69.3158 93.6794 68.8743 93.4209 68.4782 93.0097L68.7137 92.7326C69.0652 93.0911 69.4554 93.3134 69.8843 93.3995C70.3156 93.4828 70.757 93.4255 71.2086 93.2277C71.6601 93.0298 72.0932 92.6871 72.5078 92.1993C72.942 91.6885 73.2439 91.1521 73.4133 90.5902C73.5827 90.0282 73.6203 89.481 73.5261 88.9485C73.4343 88.4131 73.2101 87.9342 72.8534 87.5117C72.58 87.1898 72.2778 86.9752 71.9466 86.8677C71.6179 86.7573 71.2469 86.7551 70.8336 86.8612C70.4203 86.9672 69.9489 87.1855 69.4194 87.5159L68.2834 88.2207C67.5081 88.7001 66.8212 88.9291 66.2229 88.9077C65.6218 88.8839 65.1013 88.613 64.6616 88.0951C64.2781 87.6398 64.0336 87.1262 63.9281 86.5543C63.8251 85.9795 63.8596 85.3949 64.0318 84.8005C64.2011 84.2037 64.5028 83.6498 64.9371 83.139C65.3688 82.6311 65.8354 82.2869 66.3367 82.1065C66.838 81.9261 67.3373 81.9031 67.8346 82.0375C68.3319 82.1719 68.7889 82.4559 69.2057 82.8897L68.9702 83.1668ZM69.0629 79.1274L68.83 78.84L73.923 72.8485L74.1559 73.1359L71.7272 75.9931L79.1092 84.714L78.8736 84.9911L71.4917 76.2702L69.0629 79.1274ZM81.8755 81.4596L81.6253 81.754L76.7041 69.5767L77.0279 69.1958L87.3365 75.0352L87.0863 75.3296L77.1829 69.7153L77.1535 69.7499L81.8755 81.4596ZM79.9275 77.1191L83.4307 72.9978L83.6636 73.2852L80.1604 77.4066L79.9275 77.1191ZM88.8499 73.2548L81.235 64.2465L83.4429 61.649C83.8649 61.1526 84.3284 60.8208 84.8335 60.6535C85.3381 60.4809 85.8459 60.4801 86.3569 60.651C86.8675 60.8165 87.3424 61.1555 87.7816 61.6681C88.2102 62.1816 88.4946 62.739 88.6347 63.3403C88.7719 63.9392 88.7692 64.536 88.6266 65.1306C88.4812 65.7229 88.1974 66.2672 87.7755 66.7636L85.6853 69.2225L85.4377 68.9524L87.5279 66.4935C87.9057 66.049 88.1604 65.5621 88.2922 65.0328C88.4264 64.5006 88.4316 63.9681 88.3078 63.4353C88.1865 62.8996 87.9326 62.4029 87.5461 61.9452C87.1539 61.4825 86.7301 61.177 86.2747 61.0285C85.8192 60.88 85.3667 60.8831 84.917 61.0377C84.4674 61.1924 84.0536 61.492 83.6758 61.9365L81.7034 64.2569L89.0854 72.9778L88.8499 73.2548ZM88.2595 65.7731L93.5749 67.6962L93.3246 67.9906L88.0093 66.0675L88.2595 65.7731ZM93.551 54.2493C92.9915 53.6793 92.3673 53.4047 91.6784 53.4256C90.9895 53.4465 90.3519 53.8019 89.7655 54.4917C89.3828 54.9419 89.1151 55.4352 88.9624 55.9716C88.8093 56.5026 88.7751 57.0254 88.8598 57.5398C88.9416 58.0518 89.1477 58.5054 89.478 58.9005C89.6712 59.1294 89.8815 59.3031 90.1087 59.4218C90.3356 59.535 90.5824 59.5957 90.849 59.6036C91.1153 59.6062 91.4027 59.5547 91.7112 59.4491C92.0222 59.3405 92.3543 59.1779 92.7076 58.9612L93.8288 58.2737C94.2563 58.0107 94.6528 57.8133 95.0183 57.6815C95.3863 57.5469 95.7262 57.4804 96.0381 57.482C96.3499 57.4835 96.6405 57.554 96.9097 57.6934C97.1815 57.83 97.4348 58.0378 97.6697 58.3171C98.0797 58.7998 98.3424 59.3388 98.4578 59.9341C98.5704 60.5269 98.5324 61.1359 98.3439 61.7612C98.1579 62.3836 97.8171 62.9863 97.3215 63.5693C96.8652 64.1061 96.3838 64.4823 95.8773 64.6981C95.3679 64.9114 94.87 64.9678 94.3835 64.8675C93.8966 64.7619 93.4551 64.5034 93.059 64.0922L93.2945 63.8151C93.646 64.1736 94.0362 64.3959 94.4651 64.482C94.8965 64.5653 95.3379 64.508 95.7894 64.3102C96.241 64.1123 96.674 63.7696 97.0886 63.2818C97.5229 62.771 97.8247 62.2346 97.9941 61.6727C98.1636 61.1107 98.2012 60.5635 98.1069 60.031C98.0152 59.4956 97.7909 59.0167 97.4342 58.5942C97.1609 58.2723 96.8586 58.0577 96.5275 57.9502C96.1987 57.8398 95.8277 57.8376 95.4144 57.9436C95.0011 58.0497 94.5297 58.268 94.0003 58.5984L92.8643 59.3032C92.0889 59.7826 91.4021 60.0116 90.8038 59.9902C90.2026 59.9664 89.6822 59.6955 89.2425 59.1776C88.8589 58.7223 88.6144 58.2087 88.5089 57.6368C88.4059 57.062 88.4405 56.4774 88.6126 55.883C88.7819 55.2862 89.0837 54.7323 89.5179 54.2215C89.9497 53.7136 90.4162 53.3694 90.9176 53.189C91.4189 53.0086 91.9182 52.9856 92.4155 53.12C92.9127 53.2544 93.3698 53.5384 93.7865 53.9722L93.551 54.2493ZM94.2499 48.9354L99.6007 55.2735L99.3651 55.5505L94.0144 49.2125L94.2499 48.9354ZM101.814 58.1091C101.74 58.1957 101.65 58.2407 101.542 58.244C101.438 58.2444 101.346 58.2035 101.266 58.1213C101.187 58.039 101.146 57.9389 101.141 57.821C101.14 57.7002 101.176 57.5966 101.249 57.51C101.323 57.4234 101.412 57.3799 101.517 57.3795C101.624 57.3761 101.717 57.4156 101.796 57.4979C101.849 57.5527 101.885 57.6183 101.905 57.6946C101.924 57.7656 101.925 57.8381 101.907 57.9122C101.894 57.9858 101.863 58.0514 101.814 58.1091Z" fill="white"/>
<path d="M31.2487 76.1889C32.8652 75.8895 33.6722 75.7397 34.2214 76.2321C34.7706 76.7245 34.6967 77.5318 34.5496 79.1486L34.51 79.5652C34.4688 80.0266 34.448 80.2561 34.5279 80.4913C34.6077 80.7264 34.7795 80.942 35.1241 81.3722L35.4359 81.7633C36.6464 83.2758 37.2507 84.0331 37.0555 84.5814C36.8603 85.1298 35.9936 85.1088 34.2607 85.0633L33.8117 85.0512C33.32 85.0394 33.0747 85.033 32.8785 85.1226C32.6823 85.2122 32.5581 85.3874 32.312 85.7382L32.0877 86.0565C31.2198 87.2926 30.7849 87.9089 30.1155 87.7569C29.4461 87.6049 28.9847 86.7814 28.0615 85.1379L27.8218 84.7114C27.5601 84.2458 27.4284 84.0124 27.227 83.8318C27.0256 83.6512 26.7776 83.5442 26.283 83.3316L25.8299 83.137C24.0845 82.3897 23.2094 82.0129 22.992 81.3697C22.7747 80.7265 23.3545 80.2402 24.517 79.2702L24.8176 79.0184C25.1477 78.743 25.3125 78.6041 25.3841 78.4028C25.4557 78.2015 25.4267 77.96 25.3667 77.4791L25.3115 77.0391C25.1012 75.3422 24.9956 74.4914 25.5299 74.2471C26.0641 74.0028 26.8857 74.524 28.5269 75.5685L28.9513 75.8373C29.4181 76.1347 29.652 76.2829 29.8968 76.3388C30.1415 76.3947 30.371 76.3523 30.8309 76.2664L31.2487 76.1889ZM39.4757 91.8747C40.2851 91.7251 40.6879 91.6496 40.9632 91.8964C41.2385 92.1433 41.2009 92.5463 41.1276 93.3559L41.1082 93.5637C41.0865 93.7942 41.0765 93.9085 41.116 94.0265C41.1564 94.1436 41.2423 94.2514 41.4141 94.467L41.571 94.6615C42.1752 95.4188 42.4784 95.7964 42.3791 96.071C42.2822 96.3458 41.8486 96.3341 40.9829 96.3121L40.7588 96.3055C40.5125 96.3001 40.3887 96.2968 40.2913 96.3422C40.1934 96.3853 40.1323 96.4748 40.008 96.65L39.8959 96.8092C39.461 97.4254 39.2445 97.7354 38.9103 97.6588C38.576 97.5823 38.3456 97.1718 37.8832 96.3493L37.7627 96.1355C37.6325 95.9033 37.566 95.7859 37.466 95.6963C37.3646 95.6053 37.2413 95.5525 36.9933 95.4456L36.7675 95.3489C35.8953 94.9747 35.4592 94.7876 35.3485 94.4653C35.2394 94.1442 35.5298 93.9005 36.111 93.4155L36.2608 93.2901C36.4266 93.1502 36.51 93.0826 36.5441 92.9823C36.5816 92.8813 36.5654 92.7609 36.5364 92.5194L36.5083 92.2999C36.4031 91.4515 36.3498 91.0266 36.6177 90.9051C36.8851 90.7813 37.2949 91.0429 38.1165 91.5641L38.3277 91.6996C38.5616 91.8478 38.6785 91.9218 38.8004 91.9503C38.9233 91.9778 39.0385 91.956 39.268 91.9136L39.4757 91.8747ZM16.2911 71.0865C17.102 70.9382 17.5033 70.8614 17.7786 71.1082C18.054 71.3551 18.0163 71.7581 17.943 72.5677L17.9237 72.7755C17.9019 73.006 17.892 73.1203 17.9314 73.2384C17.9718 73.3554 18.0577 73.4632 18.2295 73.6788L18.3864 73.8733C18.9907 74.6306 19.2938 75.0082 19.1959 75.2841C19.0976 75.5576 18.664 75.5459 17.7983 75.5239L17.5743 75.5173C17.328 75.5119 17.2041 75.5086 17.1067 75.554C17.0089 75.5971 16.9477 75.6866 16.8235 75.8618L16.7113 76.021C16.2764 76.6372 16.0599 76.9472 15.7257 76.8706C15.3915 76.7941 15.1596 76.3823 14.6987 75.5611L14.5781 75.3473C14.448 75.1151 14.3814 74.9977 14.2815 74.9081C14.18 74.8171 14.0567 74.7643 13.8087 74.6574L13.5829 74.5607C12.7107 74.1865 12.2746 73.9994 12.164 73.6771C12.0548 73.356 12.3452 73.1123 12.9264 72.6273L13.0762 72.5019C13.242 72.362 13.3254 72.2944 13.3595 72.1941C13.397 72.0931 13.3808 71.9727 13.3518 71.7312L13.3237 71.5117C13.2185 70.6633 13.1652 70.2384 13.4317 70.1156C13.7005 69.9931 14.1103 70.2547 14.9319 70.7759L15.1431 70.9114C15.377 71.0596 15.494 71.1336 15.6158 71.1621C15.7387 71.1896 15.8539 71.1678 16.0834 71.1254L16.2911 71.0865Z" stroke="#422FEE" stroke-width="1.5"/>
</svg>
